<mxfile host="app.diagrams.net" modified="2023-11-16T09:41:10.113Z" agent="Mozilla/5.0 (Windows NT 10.0; Win64; x64) AppleWebKit/537.36 (KHTML, like Gecko) Chrome/119.0.0.0 Safari/537.36 Edg/119.0.0.0" etag="8a94rkdpBxkF7pdFeiEN" version="22.1.2" type="github">
  <diagram name="Page-1" id="dpqkfL4MBGs2bWz3psQa">
    <mxGraphModel dx="1386" dy="751" grid="1" gridSize="10" guides="1" tooltips="1" connect="1" arrows="1" fold="1" page="1" pageScale="1" pageWidth="827" pageHeight="1169" math="0" shadow="0">
      <root>
        <mxCell id="0" />
        <mxCell id="1" parent="0" />
        <mxCell id="qlugg_CgchIzQ1Sg3a-I-3" value="&lt;br&gt;&lt;br&gt;&lt;br&gt;&lt;br&gt;&lt;br&gt;&lt;br&gt;&lt;br&gt;&lt;br&gt;&lt;br&gt;&lt;br&gt;&lt;br&gt;&lt;br&gt;&lt;br&gt;&lt;br&gt;&lt;br&gt;&lt;b&gt;&amp;nbsp; &amp;nbsp; &amp;nbsp; &amp;nbsp; &amp;nbsp; &amp;nbsp; &amp;nbsp; &amp;nbsp; &amp;nbsp; &amp;nbsp; &amp;nbsp; &amp;nbsp; &amp;nbsp; &amp;nbsp; &amp;nbsp; &amp;nbsp; &amp;nbsp; &amp;nbsp; &amp;nbsp; &amp;nbsp; &amp;nbsp; &amp;nbsp; &amp;nbsp; &amp;nbsp; &amp;nbsp; &amp;nbsp; &amp;nbsp; &amp;nbsp; &amp;nbsp; &amp;nbsp; &amp;nbsp; &amp;nbsp; &amp;nbsp; Oracle Integration Cloud OIC&lt;/b&gt;" style="rounded=1;whiteSpace=wrap;html=1;align=left;" parent="1" vertex="1">
          <mxGeometry x="30" y="130" width="970" height="290" as="geometry" />
        </mxCell>
        <mxCell id="qlugg_CgchIzQ1Sg3a-I-1" value="Every 5 minutes" style="image;sketch=0;aspect=fixed;html=1;points=[];align=center;fontSize=12;image=img/lib/mscae/SchedulerJobCollection.svg;" parent="1" vertex="1">
          <mxGeometry x="80" y="220" width="50" height="43" as="geometry" />
        </mxCell>
        <mxCell id="qlugg_CgchIzQ1Sg3a-I-2" value="" style="endArrow=classic;html=1;rounded=0;" parent="1" target="qlugg_CgchIzQ1Sg3a-I-4" edge="1">
          <mxGeometry width="50" height="50" relative="1" as="geometry">
            <mxPoint x="130" y="250" as="sourcePoint" />
            <mxPoint x="210" y="250" as="targetPoint" />
          </mxGeometry>
        </mxCell>
        <mxCell id="qlugg_CgchIzQ1Sg3a-I-4" value="CheckFaults (SQL)" style="rounded=1;whiteSpace=wrap;html=1;" parent="1" vertex="1">
          <mxGeometry x="414" y="220" width="120" height="60" as="geometry" />
        </mxCell>
        <mxCell id="qlugg_CgchIzQ1Sg3a-I-5" value="&lt;br&gt;&lt;br&gt;&lt;br&gt;&lt;br&gt;&lt;br&gt;&lt;br&gt;&lt;br&gt;&lt;br&gt;&lt;br&gt;&lt;br&gt;&lt;br&gt;&lt;br&gt;&lt;br&gt;&lt;br&gt;&lt;br&gt;&lt;br&gt;&lt;b&gt;Oracle Autonaomous database / ATP Logging Database&lt;/b&gt;" style="rounded=1;whiteSpace=wrap;html=1;" parent="1" vertex="1">
          <mxGeometry x="30" y="450" width="970" height="300" as="geometry" />
        </mxCell>
        <mxCell id="qlugg_CgchIzQ1Sg3a-I-7" value="ATP_Database" style="shape=cylinder3;whiteSpace=wrap;html=1;boundedLbl=1;backgroundOutline=1;size=15;" parent="1" vertex="1">
          <mxGeometry x="431" y="500" width="86" height="85" as="geometry" />
        </mxCell>
        <mxCell id="qlugg_CgchIzQ1Sg3a-I-10" value="faults &amp;gt; threshold&amp;nbsp;" style="rhombus;whiteSpace=wrap;html=1;" parent="1" vertex="1">
          <mxGeometry x="660" y="213" width="80" height="80" as="geometry" />
        </mxCell>
        <mxCell id="qlugg_CgchIzQ1Sg3a-I-11" value="" style="ellipse;whiteSpace=wrap;html=1;aspect=fixed;fillColor=#000000;" parent="1" vertex="1">
          <mxGeometry x="690" y="340" width="20" height="20" as="geometry" />
        </mxCell>
        <mxCell id="qlugg_CgchIzQ1Sg3a-I-12" value="Email/Mobile Alert with summary services with most faults and example XCorrelationID" style="rounded=1;whiteSpace=wrap;html=1;" parent="1" vertex="1">
          <mxGeometry x="790" y="220" width="140" height="73" as="geometry" />
        </mxCell>
        <mxCell id="qlugg_CgchIzQ1Sg3a-I-13" value="" style="endArrow=classic;html=1;rounded=0;" parent="1" source="qlugg_CgchIzQ1Sg3a-I-4" target="qlugg_CgchIzQ1Sg3a-I-10" edge="1">
          <mxGeometry width="50" height="50" relative="1" as="geometry">
            <mxPoint x="390" y="410" as="sourcePoint" />
            <mxPoint x="440" y="360" as="targetPoint" />
          </mxGeometry>
        </mxCell>
        <mxCell id="qlugg_CgchIzQ1Sg3a-I-14" value="" style="endArrow=classic;html=1;rounded=0;" parent="1" source="qlugg_CgchIzQ1Sg3a-I-10" target="qlugg_CgchIzQ1Sg3a-I-12" edge="1">
          <mxGeometry width="50" height="50" relative="1" as="geometry">
            <mxPoint x="390" y="410" as="sourcePoint" />
            <mxPoint x="440" y="360" as="targetPoint" />
          </mxGeometry>
        </mxCell>
        <mxCell id="qlugg_CgchIzQ1Sg3a-I-16" value="yes" style="edgeLabel;html=1;align=center;verticalAlign=middle;resizable=0;points=[];" parent="qlugg_CgchIzQ1Sg3a-I-14" vertex="1" connectable="0">
          <mxGeometry x="0.08" y="-1" relative="1" as="geometry">
            <mxPoint x="-7" y="-12" as="offset" />
          </mxGeometry>
        </mxCell>
        <mxCell id="qlugg_CgchIzQ1Sg3a-I-15" value="" style="endArrow=classic;html=1;rounded=0;" parent="1" source="qlugg_CgchIzQ1Sg3a-I-10" target="qlugg_CgchIzQ1Sg3a-I-11" edge="1">
          <mxGeometry width="50" height="50" relative="1" as="geometry">
            <mxPoint x="390" y="410" as="sourcePoint" />
            <mxPoint x="440" y="360" as="targetPoint" />
          </mxGeometry>
        </mxCell>
        <mxCell id="qlugg_CgchIzQ1Sg3a-I-17" value="No" style="edgeLabel;html=1;align=center;verticalAlign=middle;resizable=0;points=[];" parent="qlugg_CgchIzQ1Sg3a-I-15" vertex="1" connectable="0">
          <mxGeometry x="-0.3191" y="1" relative="1" as="geometry">
            <mxPoint x="9" as="offset" />
          </mxGeometry>
        </mxCell>
        <mxCell id="qlugg_CgchIzQ1Sg3a-I-6" value="" style="endArrow=classic;html=1;rounded=0;" parent="1" source="qlugg_CgchIzQ1Sg3a-I-4" target="qlugg_CgchIzQ1Sg3a-I-7" edge="1">
          <mxGeometry width="50" height="50" relative="1" as="geometry">
            <mxPoint x="390" y="410" as="sourcePoint" />
            <mxPoint x="440" y="360" as="targetPoint" />
          </mxGeometry>
        </mxCell>
        <mxCell id="dxT9oG7njFoei-j7alkk-1" value="LOG_HEADER" style="swimlane;fontStyle=0;childLayout=stackLayout;horizontal=1;startSize=30;horizontalStack=0;resizeParent=1;resizeParentMax=0;resizeLast=0;collapsible=1;marginBottom=0;whiteSpace=wrap;html=1;" vertex="1" parent="1">
          <mxGeometry x="230" y="595" width="120" height="65" as="geometry" />
        </mxCell>
        <mxCell id="dxT9oG7njFoei-j7alkk-9" style="edgeStyle=orthogonalEdgeStyle;rounded=0;orthogonalLoop=1;jettySize=auto;html=1;" edge="1" parent="1" source="dxT9oG7njFoei-j7alkk-6" target="qlugg_CgchIzQ1Sg3a-I-7">
          <mxGeometry relative="1" as="geometry" />
        </mxCell>
        <mxCell id="dxT9oG7njFoei-j7alkk-6" value="LOG_FAULT" style="swimlane;fontStyle=0;childLayout=stackLayout;horizontal=1;startSize=30;horizontalStack=0;resizeParent=1;resizeParentMax=0;resizeLast=0;collapsible=1;marginBottom=0;whiteSpace=wrap;html=1;" vertex="1" parent="1">
          <mxGeometry x="406" y="620" width="136" height="65" as="geometry" />
        </mxCell>
        <mxCell id="dxT9oG7njFoei-j7alkk-7" value="LOG_MESSAGE" style="swimlane;fontStyle=0;childLayout=stackLayout;horizontal=1;startSize=30;horizontalStack=0;resizeParent=1;resizeParentMax=0;resizeLast=0;collapsible=1;marginBottom=0;whiteSpace=wrap;html=1;" vertex="1" parent="1">
          <mxGeometry x="600" y="595" width="150" height="65" as="geometry" />
        </mxCell>
        <mxCell id="dxT9oG7njFoei-j7alkk-10" style="edgeStyle=orthogonalEdgeStyle;rounded=0;orthogonalLoop=1;jettySize=auto;html=1;entryX=0;entryY=0.5;entryDx=0;entryDy=0;entryPerimeter=0;" edge="1" parent="1" source="dxT9oG7njFoei-j7alkk-1" target="qlugg_CgchIzQ1Sg3a-I-7">
          <mxGeometry relative="1" as="geometry" />
        </mxCell>
        <mxCell id="dxT9oG7njFoei-j7alkk-12" style="edgeStyle=orthogonalEdgeStyle;rounded=0;orthogonalLoop=1;jettySize=auto;html=1;entryX=1;entryY=0.5;entryDx=0;entryDy=0;entryPerimeter=0;" edge="1" parent="1" source="dxT9oG7njFoei-j7alkk-7" target="qlugg_CgchIzQ1Sg3a-I-7">
          <mxGeometry relative="1" as="geometry" />
        </mxCell>
      </root>
    </mxGraphModel>
  </diagram>
</mxfile>
